<svg width="16" height="16" viewBox="0 0 16 16" fill="none" xmlns="http://www.w3.org/2000/svg">
<path d="M11.7488 1.12122C9.01001 1.12122 8.00376 3.91997 8.00376 3.91997C8.00376 3.91997 7.01126 1.12122 4.25376 1.12122C2.18126 1.12122 -0.181239 2.76372 0.691261 6.49747C1.56376 10.2312 8.01126 14.8825 8.01126 14.8825C8.01126 14.8825 14.435 10.2312 15.3088 6.49747C16.1813 2.76372 13.9888 1.12122 11.7488 1.12122Z" fill="#FF94BD"/>
<path d="M3.83124 1.39997C5.98124 1.39997 7.04874 3.71122 7.39374 4.64747C7.44249 4.78122 7.62874 4.78497 7.68499 4.65497L7.99999 3.91872C7.55624 2.50122 6.33624 1.12122 4.25374 1.12122C3.39124 1.12122 2.47999 1.40622 1.77124 2.00747C2.39749 1.59622 3.13124 1.39997 3.83124 1.39997ZM11.7487 1.12122C11.0875 1.12122 10.5275 1.31372 10.0575 1.60247C10.3875 1.47497 10.7525 1.39997 11.1575 1.39997C13.1837 1.39997 14.9975 2.93622 14.1787 6.48747C13.4762 9.53622 9.37124 13.235 8.11749 14.6462C8.03749 14.7362 8.00999 14.8812 8.00999 14.8812C8.00999 14.8812 14.4337 10.23 15.3075 6.49622C16.1812 2.76372 13.8212 1.12122 11.7487 1.12122Z" fill="#FF61A9"/>
<path d="M2.13001 3.10245C2.59876 2.51745 3.43626 2.0337 4.14626 2.5912C4.53001 2.89245 4.36251 3.50995 4.01876 3.76995C3.51876 4.14995 3.08376 4.3787 2.77876 4.9737C2.59626 5.3312 2.48626 5.72245 2.43001 6.1212C2.40751 6.2787 2.20126 6.31745 2.12376 6.1787C1.59626 5.2437 1.44626 3.9562 2.13001 3.10245ZM9.64501 4.33245C9.42501 4.33245 9.27001 4.11995 9.35001 3.91495C9.49876 3.53745 9.69126 3.17245 9.92251 2.84745C10.265 2.36745 10.9163 2.08745 11.3288 2.3787C11.7513 2.6762 11.6963 3.2712 11.4 3.5587C10.7638 4.17495 9.96126 4.33245 9.64501 4.33245Z" fill="#F9D2E1"/>
</svg>
